<svg width="131" height="131" viewBox="0 0 131 131" fill="none" xmlns="http://www.w3.org/2000/svg">
<path d="M131 65.4505C131 101.624 101.612 132.992 65.5 130.901C33.3511 129.077 0 101.624 0 65.4505C0 29.277 29.3436 0 65.5 0C98.6285 0 131 29.3215 131 65.4505Z" fill="#FFBA2A"/>
<path d="M75.3398 40.4297L75.2695 50.7656C75.2695 57.6562 75.3281 63.5859 75.4453 68.5547L75.7617 90.3867C75.1758 90.9258 73.6641 91.1953 71.2266 91.1953L68.2031 91.125H67.6055L66.1641 91.1602H64.7227L62.5078 91.1953C60.1406 91.1953 57.7969 91.1602 55.4766 91.0898L54.9141 90.2109C54.6797 89.8828 54.5625 89.1445 54.5625 87.9961C54.5625 86.8477 54.6562 79.2422 54.8438 65.1797L54.9844 55.5469C51.1406 58.1719 47.3906 60.0586 43.7344 61.207C43.5703 61.1836 43.4766 61.0781 43.4531 60.8906V57.1641L43.418 55.582C43.418 49.418 43.4648 46.3242 43.5586 46.3008C43.6523 46.2539 43.9922 46.0664 44.5781 45.7383C45.1875 45.4102 45.8789 45.0938 46.6523 44.7891C47.4258 44.4844 47.8828 44.2734 48.0234 44.1562C48.1875 44.0391 48.375 43.9336 48.5859 43.8398C54.6094 40.957 58.2891 38.4727 59.625 36.3867L70.4531 36.5977C72.6094 36.5977 74.2031 36.5508 75.2344 36.457C75.3047 36.5977 75.3398 37.2539 75.3398 38.4258V40.4297Z" fill="#FDE9D5"/>
</svg>
