<svg width="131" height="131" viewBox="0 0 131 131" fill="none" xmlns="http://www.w3.org/2000/svg">
<path d="M131 65.4505C131 101.624 101.612 132.992 65.5 130.901C33.3511 129.077 0 101.624 0 65.4505C0 29.277 29.3436 0 65.5 0C98.6285 0 131 29.3215 131 65.4505Z" fill="#FFBA2A"/>
<path d="M89.4844 82.3008L89.3086 89.1914V89.8945C89.3086 90.4805 89.0508 90.7969 88.5352 90.8438L74.0508 90.5273C63.9727 90.5273 53.4375 90.7617 42.4453 91.2305L41.9883 90.6328C41.5898 90.3516 41.3906 89.3086 41.3906 87.5039C41.3906 85.6758 41.4141 83.707 41.4609 81.5977V81.3516C41.5078 79.4297 41.5312 77.9648 41.5312 76.957C41.5312 76.582 43.3945 75.1641 47.1211 72.7031L53.2031 68.6602C57.4219 65.7539 60.6328 63.3047 62.8359 61.3125C66.6797 57.8203 68.6016 54.6797 68.6016 51.8906C68.6016 50.6719 68.2266 49.7109 67.4766 49.0078C66.75 48.2812 65.8125 47.918 64.6641 47.918C63.5156 47.918 62.625 48.1992 61.9922 48.7617C61.3828 49.3008 61.0078 49.9102 60.8672 50.5898C60.4219 52.5586 60.0117 53.6484 59.6367 53.8594C58.9102 53.8828 57.8203 53.8945 56.3672 53.8945H45.7148L44.1328 53.8594H42.7617C41.9648 53.8594 41.5078 53.7539 41.3906 53.543C41.5781 50.707 41.8945 48.6211 42.3398 47.2852C42.9492 45.0586 44.0273 43.125 45.5742 41.4844C47.1445 39.8203 49.0078 38.5312 51.1641 37.6172C55.3594 35.8828 60.0703 35.0156 65.2969 35.0156C73.5234 35.0156 79.7812 36.8672 84.0703 40.5703C87.2812 43.2891 88.8867 46.8867 88.8867 51.3633C88.8867 57.0352 86.3203 62.2266 81.1875 66.9375C78.6562 69.2578 75.3047 71.7773 71.1328 74.4961L68.6719 76.7109L85.8281 76.3945C87.2578 76.3945 88.2188 76.8867 88.7109 77.8711C89.2266 78.8555 89.4844 80.332 89.4844 82.3008Z" fill="#FDE9D5"/>
</svg>
