<svg width="131" height="131" viewBox="0 0 131 131" fill="none" xmlns="http://www.w3.org/2000/svg">
<path d="M131 65.4505C131 101.624 101.612 132.992 65.5 130.901C33.3511 129.077 0 101.624 0 65.4505C0 29.277 29.3436 0 65.5 0C98.6285 0 131 29.3215 131 65.4505Z" fill="#FFBA2A"/>
<path d="M64.3594 68.625L61.582 68.6602C60.8789 68.6602 60.3867 68.4258 60.1055 67.957C59.8477 67.4648 59.7188 66.2578 59.7188 64.3359C59.7188 62.4141 59.7891 60.9375 59.9297 59.9062C60.0703 58.875 60.4336 58.3594 61.0195 58.3594H62.3555L63.0938 58.3945H63.832C66.0352 58.3945 67.7461 57.9258 68.9648 56.9883C70.1836 56.0273 70.793 54.3398 70.793 51.9258C70.793 50.6367 70.418 49.582 69.668 48.7617C68.9414 47.918 67.875 47.4961 66.4688 47.4961C65.0625 47.4961 64.1016 47.8359 63.5859 48.5156C63.3516 48.7969 63.1875 49.0078 63.0938 49.1484C62.8594 49.4062 62.6016 50.2266 62.3203 51.6094L62.3555 51.5742L62.2148 51.9609C61.9805 52.8984 61.7227 53.4727 61.4414 53.6836C56.918 53.6836 52.3359 53.6133 47.6953 53.4727H46.3945L45.7969 53.5078C44.5547 53.5078 43.8633 53.2852 43.7227 52.8398C43.7695 52.4648 43.8281 51.6211 43.8984 50.3086C43.9922 48.9961 44.2266 47.8359 44.6016 46.8281C45.9844 42.9844 48.0938 40.1602 50.9297 38.3555V38.3906C54.9375 36.0938 60.6328 34.9453 68.0156 34.9453C70.7344 34.9453 72.8555 35.0859 74.3789 35.3672C75.9023 35.625 77.4375 36.0234 78.9844 36.5625C82.1016 37.6172 84.7617 39.293 86.9648 41.5898C89.1914 43.8867 90.3047 46.7461 90.3047 50.168C90.3047 53.5664 89.2383 56.1328 87.1055 57.8672C84.9961 59.5781 82.3945 60.9375 79.3008 61.9453C83.7539 63.3281 86.8945 65.0039 88.7227 66.9727C90.5742 68.9414 91.5 71.4961 91.5 74.6367C91.5 82.3008 87.6797 87.4688 80.0391 90.1406C76.2422 91.4531 71.2617 92.1094 65.0977 92.1094C57.1289 92.1094 50.9883 90 46.6758 85.7812C44.332 83.7422 43.0547 79.9219 42.8438 74.3203C42.8438 74.0156 42.9727 73.8633 43.2305 73.8633L60.6328 73.582C60.9844 73.582 61.1836 73.7344 61.2305 74.0391C61.7227 77.7188 63.4688 79.5586 66.4688 79.5586C68.0156 79.5586 69.2109 79.1133 70.0547 78.2227C70.9219 77.332 71.3555 76.2656 71.3555 75.0234C71.3555 73.7578 71.1797 72.7266 70.8281 71.9297C70.1719 70.5469 69.1641 69.6562 67.8047 69.2578C66.4688 68.8359 65.3203 68.625 64.3594 68.625Z" fill="#FDE9D5"/>
</svg>
