<svg width="142" height="142" viewBox="0 0 142 142" fill="none" xmlns="http://www.w3.org/2000/svg">
<path d="M142 70.9464C142 110.157 110.144 144.16 71 141.893C36.1516 139.915 0 110.157 0 70.9464C0 31.7354 31.8076 0 71 0C106.91 0 142 31.7836 142 70.9464Z" fill="#FFBA2A"/>
<path d="M119.627 68.2669C120.339 68.6519 120.323 69.6791 119.599 70.0409L106.784 76.4469C106.145 76.766 105.388 76.333 105.339 75.6211L104.386 61.7681C104.332 60.9819 105.166 60.445 105.86 60.8199L119.627 68.2669Z" fill="#FDE9D5"/>
<path d="M26.0615 76.4577L25.6486 71.4576L25.2049 66.3866C25.2204 66.3771 25.2971 66.3663 25.4349 66.3543L25.8849 66.3149C26.0551 66.3 26.1841 66.2805 26.2719 66.2565L27.7745 66.0638C28.1622 66.0135 28.4614 65.9792 28.6722 65.9607L30.6058 65.7916L34.1735 65.3937C34.6599 65.3511 35.1968 65.3246 35.784 65.314L35.8692 65.3066C36.1434 65.2663 36.317 65.2429 36.3899 65.2365C38.0113 65.0947 39.4427 65.4882 40.684 66.417C41.2866 66.8626 41.7841 67.4604 42.1765 68.2103C42.5689 68.9602 42.8016 69.7527 42.8746 70.5877C42.947 71.4146 42.9236 72.1274 42.8044 72.726C42.6852 73.3246 42.5096 73.8383 42.2775 74.267C41.3507 75.9983 39.363 77.1361 36.3145 77.6806L33.6974 78.0198C33.7866 79.9726 33.8783 81.4881 33.9727 82.5664L34.0178 82.9423L34.104 83.9273C34.0815 84.0436 34.0274 84.126 33.9418 84.1743L27.0077 84.8912C26.8358 84.5141 26.7123 83.8959 26.6371 83.0366L26.0615 76.4577ZM36.2456 70.3099C35.8469 69.487 34.9478 69.1082 33.5484 69.1735C33.345 69.1831 33.065 69.2035 32.7083 69.2347C32.611 69.2432 32.6548 70.4443 32.8397 72.838L32.8952 73.7522L32.9955 74.4787C33.9913 74.3752 34.8484 74.0878 35.5669 73.6165C36.2935 73.1445 36.61 72.3734 36.5163 71.3033C36.4766 70.8493 36.3864 70.5182 36.2456 70.3099ZM59.9549 76.8867C59.9181 77.1187 59.911 77.3643 59.9337 77.6238L59.9581 77.9035C59.9957 78.3331 60.051 78.6387 60.1241 78.8202C60.2312 80.0444 60.3098 80.9892 60.3598 81.6547C60.3296 81.8697 56.338 82.3252 48.385 83.021C48.0202 83.0529 47.4155 83.0976 46.571 83.1552C46.42 82.9233 46.32 82.5277 46.2711 81.9683L46.2262 81.1757L45.9847 78.4153L45.7947 76.1037L45.5947 73.8175L45.2845 70.1318C45.2249 69.4508 45.1608 68.811 45.0921 68.2125L45.0804 68.0788L44.8907 66.3308C44.8006 65.3012 44.8272 64.625 44.9705 64.302C45.1334 64.2959 45.3567 64.2805 45.6404 64.2556L46.2241 64.2046L48.265 64.0015C50.5917 63.798 51.8854 63.8318 52.146 64.1031L52.42 68.3557L52.6953 71.9219L52.6959 72.0689L53.0898 77.132L53.6007 77.3691C55.0603 77.1515 56.4751 76.9828 57.8452 76.863C59.2234 76.7424 59.9267 76.7503 59.9549 76.8867ZM81.9592 79.8018C81.9604 79.9079 81.742 79.9801 81.3042 80.0184L80.1855 80.1162L79.4326 80.1944L78.6908 80.2593L77.5123 80.3746C76.3368 80.4775 75.3574 80.5346 74.5741 80.5459C74.5491 80.5399 74.5165 80.4938 74.4762 80.4074L74.3931 80.1574C74.2471 79.3287 73.986 78.5387 73.6098 77.7874L68.4094 78.2914C68.389 78.4321 68.3194 78.8507 68.2006 79.5473C68.0819 80.2439 67.9931 80.7704 67.9344 81.1268C67.8605 81.215 67.4789 81.2892 66.7898 81.3495L66.4848 81.3639L65.7794 81.4256L62.6241 81.7752L62.2593 81.8071L61.9198 81.8491L61.0686 81.9235C61.0069 81.8718 60.9397 81.8041 60.867 81.7206C61.4323 78.8446 62.2265 75.2706 63.2497 70.9985L63.4539 70.1106L63.4417 70.1117L63.6817 69.0737C63.7588 68.7401 63.98 67.814 64.3454 66.2953C64.719 64.7758 64.9478 63.7959 65.0318 63.3556C65.1239 62.9146 65.1814 62.6849 65.2043 62.6666L67.223 62.49L71.5346 62.0515L72.7074 62.0101L73.6627 61.8653C74.1492 61.8227 74.4009 61.8987 74.4179 62.0933C75.4265 64.2842 76.7936 67.4445 78.5191 71.5742C80.2447 75.7038 81.2156 78.0247 81.4319 78.5367L81.6554 79.1299C81.7313 79.3438 81.8326 79.5678 81.9592 79.8018ZM69.3394 74.2154L69.839 74.1839L72.7443 73.9175C72.5383 72.9634 72.383 72.2621 72.2785 71.8138L71.6344 69.7748C70.96 67.669 70.613 66.5965 70.5932 66.5574C70.5735 66.5183 70.5541 66.4832 70.535 66.4522C70.5233 66.4124 70.5131 66.3888 70.5043 66.3814C70.4948 66.3659 70.4805 66.3426 70.4614 66.3116C70.4505 66.2799 70.4366 66.2607 70.4196 66.254C70.4101 66.2385 70.3962 66.2193 70.3778 66.1964C70.3126 66.1041 70.1876 66.0292 70.0028 65.9719C69.7882 66.0397 69.3491 68.537 68.6855 73.4638L68.6219 74.2781L69.3394 74.2154ZM97.0154 59.8835L97.4156 59.8362C97.5003 59.8696 97.5699 59.9656 97.6247 60.1242L97.3226 60.8736L97.3215 60.8615L96.6641 62.4507C95.6653 64.7601 95.0238 66.2989 94.7398 67.0671L94.3955 67.8937C94.0248 68.7921 93.3994 70.3744 92.5194 72.6408C92.5273 72.9178 92.5553 73.332 92.6036 73.8833L93.0429 78.9056C93.0138 79.0388 92.9384 79.1108 92.8168 79.1214L85.853 79.7797C85.6548 79.5683 85.5429 79.3167 85.5174 79.0248L85.4087 77.5026L85.3779 77.15L85.3581 76.7841L85.2926 75.8953C85.1444 74.2009 84.5518 72.4229 83.5148 70.5612C83.2929 70.1722 82.9713 69.6244 82.55 68.9178L80.421 65.4525C80.3646 65.3676 80.2132 65.1317 79.967 64.7448C79.7208 64.3578 79.4514 63.9403 79.1589 63.4921L79.16 63.5042C78.4249 62.5719 78.0432 61.9436 78.0148 61.6193C78.0113 61.5788 78.1392 61.5472 78.3986 61.5245L81.5239 61.251C83.2507 61.1 84.5529 60.9983 85.4306 60.946C85.6943 60.972 86.5418 62.8625 87.9732 66.6176L88.6896 68.5032C89.3236 66.2258 89.9688 63.5634 90.6253 60.516C90.6278 60.4505 91.2248 60.3656 92.4166 60.2613L93.9731 60.1251C94.3461 60.0925 94.6589 60.0733 94.9116 60.0675L97.0154 59.8835Z" fill="#FDE9D5"/>
</svg>
