<svg viewBox="0 0 151.51 115.19" xmlns="http://www.w3.org/2000/svg"><g fill="#403f3e"><path d="m.27 17.9c-.27-1.18-.35-1.9-.14-2.07a1.17 1.17 0 0 0 .31-.06l.34-.09 1.1-.31 1.17-.32a19.48 19.48 0 0 1 2.51-.52c.66-.09 1.05 0 1.19.18l2.78 11.21.23-.07c.57-.18 1-.29 1.21-.35l1.28-.29c.62-.13 1.22-.27 1.79-.42a4.82 4.82 0 0 1 1.07-.19q.36 0 .42.24l1.08 4.16c0 .28-1.6.83-4.72 1.64l-7.5 2a2.32 2.32 0 0 1 -.57-1.14l-.82-3.13-1-4-1-4c0-.17-.15-.53-.32-1.1s-.32-1.04-.41-1.37z"/><path d="m16.1 29.22c0-1.77.07-3.57.17-5.42s.24-4.05.43-6.63.31-4.37.37-5.35a1.34 1.34 0 0 1 .11-.31l1.82-.51 1.88-.51 1.87-.49 1.82-.47.27-.06h.27a.57.57 0 0 1 .26 0 .37.37 0 0 1 .19.09.31.31 0 0 1 .12.19l9.1 14.52a.3.3 0 0 1 -.08.33 1.59 1.59 0 0 1 -.56.24l-1 .26-1.29.34-1.28.35-.52.15-.67.19-.6.12a1.61 1.61 0 0 1 -.57 0 .46.46 0 0 1 -.31-.18l-.19-.71a3.26 3.26 0 0 0 -.64-.9c-.26-.26-.49-.36-.69-.31l-3.72 1v2.44c0 .2-.42.39-1.15.58l-.86.22-1.38.4-1.38.39-.3.08-.54.15-.58.16a2.73 2.73 0 0 1 -.37-.35zm5.8-8.52.44.43.71-.19a11.91 11.91 0 0 0 1.56-.51c.46-.2.67-.37.63-.52l-3-5.87q-.2 0-.33.87a8.65 8.65 0 0 0 -.1 1.8z"/><path d="m13.22 68.14-7.42-28.53c-.13-.49.92-1 3.14-1.6l1-.24.94-.22c1.12-.3 2.79-.75 5-1.38s3.89-1.08 5-1.37c.79-.21 1.95-.5 3.51-.87s2.75-.67 3.61-.89l.5-.16.51-.15a1.55 1.55 0 0 1 1.14 0 1.6 1.6 0 0 1 .59 1l2 7.48q-1.22.42-2.55.81l-3.4.94-2.58.69-2.95.77c.07.27.17.66.29 1.18s.21.91.28 1.18l.08.3a.82.82 0 0 1 .12.29q4.76-1.61 8.11-2.48a9.76 9.76 0 0 1 1.86-.26q.82-.06.9.24l1.84 7.13a1.31 1.31 0 0 1 -1.08 2l-.63.12c-.31 0-.55.1-.72.14q-4.26 1.41-7.81 2.4c.23.87.59 2.17 1.09 3.91s.86 3.05 1.08 3.92l.69 2.64a1.81 1.81 0 0 1 .09.86q-.07.24-.57.45l-6.05 1.56q-4 1.09-6.06 1.62a3.34 3.34 0 0 1 -.43-.48 4.43 4.43 0 0 1 -.32-.48 4.18 4.18 0 0 1 -.26-.63c-.1-.27-.16-.47-.2-.59s-.1-.35-.18-.69-.14-.53-.16-.61z"/><path d="m40.62 63.38-.21-.81q-.94-3.65-2.72-10.81t-2.69-10.76l-2.3-8.84 24.86-6.47 1.82 7 .08.32.09.35a1.66 1.66 0 0 1 .06.31.75.75 0 0 1 0 .33l-.09.29a.59.59 0 0 1 -.16.28 2 2 0 0 1 -.32.2 1.51 1.51 0 0 1 -.45.18l-.6.16q-5.53 1.43-10.12 2.45c0 .23.07.6.13 1.09s.12.93.18 1.3.13.73.22 1.07l10.17-2.64a1.53 1.53 0 0 1 .9-.06.69.69 0 0 1 .35.5 2.33 2.33 0 0 1 .07.35c0 .16.05.28.07.35.18.68.46 1.69.85 3s.68 2.34.85 3c0 .3 0 .47-.23.52a.31.31 0 0 1 -.23 0q-6.66 2.09-9.91 2.94l-.55.14.8 3.08c1.26-.33 3.08-.87 5.45-1.6s4.15-1.27 5.35-1.58c.94-.24 1.53-.18 1.78.18l.42 1.62c.18.68.46 1.69.83 3s.66 2.34.83 3 0 1.15-.57 1.29c-.74.2-1.88.49-3.43.87l-3.5.89q-3.07.8-8.76 2.45c-3.79 1.1-6.53 1.88-8.24 2.34l-.77-.53c-.18-.39-.28-.63-.31-.75z"/><path d="m99.91 48.87a3.25 3.25 0 0 1 -1.83 1.07 32.56 32.56 0 0 1 -3.72.92l-2.36.48c-1 .26-1.67.42-2.1.51l-2.14.55c-.34 0-.72-.41-1.15-1.19a33.49 33.49 0 0 1 -1.61-3.43c-.62-1.5-.94-2.3-1-2.4a5.06 5.06 0 0 0 -1.41-2.61 2.93 2.93 0 0 0 -2.35-.1l-.94.24 2.71 10.42a.7.7 0 0 1 -.34.55 3.85 3.85 0 0 1 -1.11.52c-.49.17-.94.31-1.32.42s-.91.24-1.56.39l-1.18.28-3.07.8c-1.74.46-3 .81-3.92 1.07a5.87 5.87 0 0 1 -.68-.14l-8.23-31.87c-.11-.4.41-.74 1.55-1l18.62-4.84q4.89-1.14 8 .38a8 8 0 0 1 4.13 5.5q1.35 5.16-3.24 8.91a6.43 6.43 0 0 1 1.94.38 7.3 7.3 0 0 1 1.58.81 6.69 6.69 0 0 1 1.28 1.23 13.31 13.31 0 0 1 1 1.45 15.18 15.18 0 0 1 .84 1.67c.28.66.51 1.23.68 1.72s.38 1.07.63 1.74.44 1.21.58 1.59l.49 1.88a3.81 3.81 0 0 0 .65.86 6.77 6.77 0 0 1 .65.81c.07.24.02.4-.07.43zm-23.91-18.48c.22.85.4 1.48.52 1.89a10.83 10.83 0 0 0 .65 1.57 3 3 0 0 0 1 1.26 8.3 8.3 0 0 0 1.65-.63 5.91 5.91 0 0 0 1.38-1 3.1 3.1 0 0 0 .8-1.61 4.6 4.6 0 0 0 -.09-2.13 2.64 2.64 0 0 0 -.54-1.1 2 2 0 0 0 -.89-.62 5.13 5.13 0 0 0 -1-.25 3.94 3.94 0 0 0 -1.13 0c-.44.06-.78.11-1 .16l-.88.21-.52.13a.85.85 0 0 0 -.26.71 7.87 7.87 0 0 0 .31 1.41z"/><path d="m74.26 92.39q.12.45.42 1.38c.2.62.38 1.22.54 1.78s.35 1.2.54 1.9a17 17 0 0 1 .41 1.91 12.33 12.33 0 0 1 .15 1.65 2.7 2.7 0 0 1 -.24 1.29 1.2 1.2 0 0 1 -.79.64l-11.5 3c-1-.41-2-2.63-3-6.64q-.59-2.22-1.37-5.3c-.51-2.06-.89-3.53-1.11-4.41l-.46-1.76c0-.15-.13-.44-.27-.86s-.22-.75-.27-1c0 2.61 0 6.31.25 11.1s.32 8 .35 9.62c0 .52-.76 1-2.13 1.31l-8.93 2.32c-1.09.29-1.8.17-2.14-.35l-5.16-9.91c-.49-1-1-2.08-1.59-3.17s-1.21-2.33-2-3.72l-1.63-3.07q1.8 8.15 2.9 12.38l1.15 4.44c.52 2 .92 3.47 1.22 4.47 0 .4-.14.63-.41.7l-2.37.62c-1 .25-2.44.64-4.36 1.16l-4.3 1.13c-.91.23-1.4.2-1.48-.1l-9.68-37.37a.75.75 0 0 1 0-.42.79.79 0 0 1 .29-.35 4.92 4.92 0 0 1 .43-.26 3.74 3.74 0 0 1 .56-.21l.58-.18.54-.11.45-.1 3-.78q7.15-1.9 10.15-2.47c2-.37 3.51-.69 4.55-1q1.48 3.22 4.53 9.54l4.52 9.53-1.26-21.38h.53q2.7-.7 8-2.15c3.5-1 6.14-1.68 7.94-2.15l3.73-1c.49-.07.84.34 1.08 1.23q6.85 24.29 7.64 27.12z"/><path d="m80.92 99.75-.25-1q-1.12-4.26-3.21-12.75c-1.4-5.63-2.46-9.88-3.21-12.76l-2.72-10.39 29.34-7.64 2.13 8.27.1.38.11.4c0 .07 0 .2.07.38a.78.78 0 0 1 0 .38c0 .08 0 .19-.1.34a.59.59 0 0 1 -.19.33 2.13 2.13 0 0 1 -.37.25 2.63 2.63 0 0 1 -.54.2l-.7.19q-6.54 1.69-12 2.89c0 .28.09.71.16 1.29s.14 1.1.21 1.53a11.87 11.87 0 0 0 .26 1.27l12-3.12a1.81 1.81 0 0 1 1.06-.06.81.81 0 0 1 .42.59c0 .08 0 .22.08.41s.06.32.08.41c.21.8.55 2 1 3.56s.79 2.75 1 3.56c0 .35 0 .55-.27.61a.39.39 0 0 1 -.28 0q-7.78 2.43-11.61 3.43l-.65.17.94 3.63c1.5-.39 3.64-1 6.44-1.89s4.9-1.49 6.31-1.85c1.11-.29 1.81-.22 2.1.2l.5 1.92c.21.81.53 2 1 3.57s.77 2.75 1 3.56 0 1.35-.68 1.52l-4 1q-2.73.68-4.14 1-3.63.94-10.34 2.89t-9.72 2.76l-.92-.63a6.65 6.65 0 0 1 -.41-.8z"/><path d="m97.18 10.49q-.5-1.86 8.82-4.29l6.57-1.71q8-2.76 12.76-4t5.51.91l9 50.95a1.41 1.41 0 0 1 -.36 1.11 3.71 3.71 0 0 1 -1.35 1 16.9 16.9 0 0 1 -1.93.79c-.68.24-1.46.47-2.33.7-.48.12-1.19.29-2.15.5s-1.68.38-2.15.5c-1 .26-2.43.67-4.31 1.24s-3.31 1-4.3 1.23l-4.71 1.23a3.1 3.1 0 0 1 -2.25-1.33 12.15 12.15 0 0 1 -.78-1.2 8.7 8.7 0 0 1 -.64-1.56c-.21-.65-.38-1.18-.5-1.6s-.28-1-.46-1.66zm22.53 79.67-2.66-8.16a51.31 51.31 0 0 1 -1.47-7.89c-.22-2.38 0-3.65.54-3.8l10.74-2.79q5.7-1.49 9.12-2.26c2.29-.51 4-.85 5.27-1a7.24 7.24 0 0 1 2.46 0 1.09 1.09 0 0 1 .76.79l4.53 17.27q0 .57-1.26 1.32a23.64 23.64 0 0 1 -3.57 1.57q-2.28.83-4.81 1.64c-1.7.53-3.56 1.07-5.58 1.59l-5.24 1.37c-1.46.38-2.93.75-4.42 1.11l-2.55.64-.23-.88a3.13 3.13 0 0 0 -.85-.24c-.49-.09-.71-.18-.78-.28z"/></g><path d="m123.79 30.58a9 9 0 0 1 -1.52-2.58 7.89 7.89 0 0 1 -.52-2.72 9 9 0 0 1 .37-2.62 8.76 8.76 0 0 1 1.14-2.39 9.41 9.41 0 0 1 1.74-1.99 10.16 10.16 0 0 1 2.66-1.58 9.07 9.07 0 0 1 2.86-.67 6.18 6.18 0 0 1 2.77.46 5.93 5.93 0 0 1 2.32 1.73 8.64 8.64 0 0 1 1.56 2.85 6.68 6.68 0 0 1 .34 2.9 3 3 0 0 1 -1 2c-.71.58-1.64.55-2.78-.1a4.68 4.68 0 0 1 -.31 1.83 4 4 0 0 1 -1.22 1.52 3.36 3.36 0 0 1 -2.5.76 3.22 3.22 0 0 1 -2.32-1.2l-.26-.31a5 5 0 0 1 -1-2.06 4.51 4.51 0 0 1 .11-2.38 4.38 4.38 0 0 1 1.49-2.03 3.23 3.23 0 0 1 2.4-.81l.92.28c-.13-.33-.36-.83-.68-1.5l1.06-.86 2.8 5c.53.64 1 .75 1.55.34a2.81 2.81 0 0 0 .2-2.15 6.16 6.16 0 0 0 -1.15-2.11 7.34 7.34 0 0 0 -1.72-1.57 4.87 4.87 0 0 0 -1.77-.72 4.69 4.69 0 0 0 -1.75 0 5.9 5.9 0 0 0 -1.68.59 8.48 8.48 0 0 0 -1.55 1 7 7 0 0 0 -1.71 2 6.88 6.88 0 0 0 -.84 2.4 6 6 0 0 0 .24 2.69 8 8 0 0 0 1.5 2.72 6.07 6.07 0 0 0 1.61 1.39 5.63 5.63 0 0 0 1.88.69 7 7 0 0 0 2 0 6.83 6.83 0 0 0 2-.55 8.06 8.06 0 0 0 1.79-1.1 9.26 9.26 0 0 0 1.79-2l1.46.92a10.92 10.92 0 0 1 -2.61 2.89 7.83 7.83 0 0 1 -2.82 1.5 8.39 8.39 0 0 1 -3.13.35 8.23 8.23 0 0 1 -5.67-3zm5.07-3.71a2.42 2.42 0 0 0 1.28.91 1.28 1.28 0 0 0 1.16-.25 2.69 2.69 0 0 0 1.06-1.91 2.62 2.62 0 0 0 -.6-1.94 1.72 1.72 0 0 0 -2.51-.31 2.25 2.25 0 0 0 -.9 1.64 3.08 3.08 0 0 0 .51 1.86z" fill="#eb5d43"/><path d="m141.55 20.09c-.1-.13-.31-.38-.61-.77l-.73-.9a.31.31 0 0 1 -.05-.38 1.52 1.52 0 0 1 .4-.43l1-.83-1-1.24-.25.21-.25.18a1.14 1.14 0 0 1 -.26.16l-.21.09a.41.41 0 0 1 -.21 0 .31.31 0 0 1 -.15-.1c-.18-.21-.44-.55-.79-1l-.81-1c-.17-.2.07-.58.73-1.12l.38-.29.24-.17-2-3.24a1.21 1.21 0 0 1 -.15-.26.48.48 0 0 1 0-.24.71.71 0 0 1 .07-.22 1.66 1.66 0 0 1 .22-.26l.32-.3.47-.39.58-.48a2.23 2.23 0 0 1 .51-.33.4.4 0 0 1 .38 0c.24.41.61 1 1.11 1.82s.87 1.41 1.11 1.83l.85-.7-1.07-1.3a10.26 10.26 0 0 1 -.87-1.54 2.75 2.75 0 0 1 -.33-1.09l2.07-1.7a.92.92 0 0 1 .18-.13.18.18 0 0 1 .13 0 .27.27 0 0 1 .15.12l2.29 3.6 1-.87q.23-.15.72.45l1.22 1.49c.2.24 0 .63-.67 1.16l-.27.21-.25.17-.11.08c.1.18.26.43.47.76l.48.75 1.28-1.05 1.87 2.28a.24.24 0 0 1 0 .35l-.74.53c-.31.24-.55.42-.71.56l1.11 1.72c.05.08.16.22.33.43a5.22 5.22 0 0 1 .41.56 3.79 3.79 0 0 1 .28.57 1 1 0 0 1 0 .65 1.43 1.43 0 0 1 -.46.62 3.07 3.07 0 0 0 -.28.24l-.43.37c-.71.58-1.18.78-1.4.6s-.51-.81-1-1.58-.88-1.4-1.16-1.86a2.69 2.69 0 0 1 -.33.3l-.34.28 1.72 2.67.16.27.17.27a2.22 2.22 0 0 1 .11.25.57.57 0 0 1 0 .27.81.81 0 0 1 -.1.25 1 1 0 0 1 -.23.28c-.45.37-1.1.88-2 1.54l-.58-.19-2.06-3.35-.21.18a3.21 3.21 0 0 1 -.95.63c-.05.02-.24-.12-.5-.44zm2.36-4.95c.14.16.26.19.38.1l1.34-1.11-1.25-2.13a.3.3 0 0 0 -.44 0l-.41.34a3.68 3.68 0 0 0 -.41.28l-.38.31.18.23c.11.2.27.53.48 1s.38.75.51.98z" fill="#eb5d43"/></svg>